<?xml version="1.0" encoding="UTF-8"?>
<svg xmlns="http://www.w3.org/2000/svg" xmlns:xlink="http://www.w3.org/1999/xlink" width="20pt" height="22pt" viewBox="0 0 20 22" version="1.1">
<g id="surface1">
<path style=" stroke:none;fill-rule:nonzero;fill:rgb(100%,0%,0%);fill-opacity:1;" d="M 20 10.3125 L 20 14.4375 C 20 14.570312 19.984375 14.703125 19.953125 14.832031 L 18.523438 20.675781 C 18.335938 21.453125 17.613281 22 16.785156 22 L 7.5 22 C 6.929688 22 6.390625 21.738281 6.054688 21.292969 L 0.339844 13.730469 C -0.238281 12.960938 -0.0625 11.886719 0.734375 11.328125 C 1.53125 10.769531 2.648438 10.941406 3.230469 11.707031 L 4.644531 13.578125 L 4.644531 1.71875 C 4.644531 0.769531 5.441406 0 6.429688 0 C 7.414062 0 8.214844 0.769531 8.214844 1.71875 L 8.214844 10.3125 L 8.570312 10.3125 L 8.570312 8.59375 C 8.570312 7.644531 9.371094 6.875 10.355469 6.875 C 11.34375 6.875 12.144531 7.644531 12.144531 8.59375 L 12.144531 10.3125 L 12.5 10.3125 L 12.5 9.28125 C 12.5 8.332031 13.300781 7.5625 14.285156 7.5625 C 15.273438 7.5625 16.070312 8.332031 16.070312 9.28125 L 16.070312 10.3125 L 16.429688 10.3125 C 16.429688 9.363281 17.226562 8.59375 18.214844 8.59375 C 19.199219 8.59375 20 9.363281 20 10.3125 Z M 8.570312 13.75 L 8.214844 13.75 L 8.214844 17.875 L 8.570312 17.875 Z M 12.5 13.75 L 12.144531 13.75 L 12.144531 17.875 L 12.5 17.875 Z M 16.429688 13.75 L 16.070312 13.75 L 16.070312 17.875 L 16.429688 17.875 Z M 16.429688 13.75 "/>
</g>
</svg>
